<?xml version="1.0" encoding="UTF-8"?>
<!-- Created with Inkscape (http://www.inkscape.org/) -->
<svg version="1.1" viewBox="0 0 270.93 270.93" xml:space="preserve"
  xmlns="http://www.w3.org/2000/svg"><path d="m114.16 259.52c-3.1692-1.7601-22.552-15.375-26.005-18.266-4.9156-4.1161-7.9741-6.013-9.695-6.013-0.86608 0-13.568 3.333-28.227 7.4067-26.523 7.3708-26.663 7.4017-28.845 6.3613-1.2876-0.61401-2.5829-1.9005-3.139-3.1175-1.1111-2.4318-15.561-52.239-15.561-53.637 0-0.52284 3.8603-12.972 8.5784-27.664 4.7181-14.692 8.5784-27.529 8.5784-28.527s-0.42205-2.753-0.9379-3.9007c-0.94678-2.1065-4.1325-15.992-13.686-59.651l-5.2266-23.886 5.5509-16.755c3.053-9.2154 5.8432-17.397 6.2005-18.181 0.66607-1.4619 3.9842-3.3933 5.8296-3.3933 0.56852 0 19.283 6.8627 41.587 15.25l40.554 15.25h71.35l40.804-15.297c43.873-16.447 43.161-16.247 46.351-13.018 1.0642 1.0772 3.1315 6.6017 7.104 18.984l5.603 17.465-8.6652 40.255c-4.7659 22.14-9.2474 41.702-9.959 43.47l-1.2937 3.215 18.034 56.279-7.8179 26.999c-8.2373 28.447-8.6765 29.512-12.481 30.279-1.1328 0.22816-10.854-2.1834-28.102-6.9713-19.063-5.2917-26.962-7.2254-28.504-6.9786-1.3312 0.21302-3.8405 1.746-6.6721 4.0759-5.7168 4.704-27.074 19.616-29.314 20.467-0.99418 0.37797-9.4915 0.62695-20.858 0.61117-16.869-0.024-19.416-0.15731-21.135-1.112zm42.209-25.117c0.50679-0.61067 0.43782-2.9857-0.25379-8.7372-0.94771-7.8815-0.95489-7.9031-3.3188-9.9544l-2.369-2.0557-29.933-0.02-5.1198 3.7652-0.77746 8.0182c-0.59674 6.1545-0.60353 8.2278-0.0291 8.9198 1.0661 1.2846 40.737 1.3444 41.801 0.0629zm-44.113-58.62c0.54919-0.54921 0.99853-1.4032 0.99853-1.8979 0-0.49462-1.5529-4.1915-3.4508-8.2153-3.0816-6.5331-3.6253-7.316-5.081-7.316-2.5628 0-16.211 6.3389-17.332 8.05-1.8306 2.7938-0.23584 3.876 10.645 7.223 10.847 3.3365 12.751 3.6253 14.22 2.1562zm59.458-1.9021c12.139-3.6042 12.2-3.6361 11.952-6.1738-0.18637-1.9023-0.59595-2.1824-8.3742-5.7264-5.4066-2.4635-8.6573-3.6061-9.5918-3.3715-1.0411 0.2613-2.2769 2.1303-4.6894 7.0923-3.3488 6.8878-3.8569 8.9738-2.5132 10.317 1.2081 1.2081 2.8317 0.94546 13.217-2.1381zm-116.1-54.02 24.81-6.721 17.37-13.64c16.652-13.076 18.17-14.562 16.884-16.521-0.25676-0.39108-20.666-14.617-45.354-31.613-31.654-21.792-45.386-30.902-46.578-30.902-2.0035 0-1.5339-1.0004-8.6326 18.39l-5.2203 14.259 9.0599 35.305c4.9829 19.418 9.2996 35.948 9.5926 36.734 0.32509 0.87262 1.0636 1.4297 1.8953 1.4297 0.74948 0 12.527-3.0244 26.173-6.721zm187.84 5.2913c0.29458-0.78637 4.613-17.241 9.5965-36.565l9.0609-35.136-5.9585-16.272c-4.8347-13.203-6.2202-16.367-7.346-16.775-1.1619-0.42161-8.8088 4.6054-47.022 30.912-41.273 28.413-45.635 31.579-45.635 33.12 0 1.4746 2.3218 3.5263 17.22 15.217l17.22 13.512 24.401 6.654c13.421 3.6597 25.195 6.6783 26.164 6.708 1.2745 0.0389 1.9116-0.34233 2.2988-1.3758z" stroke-width=".63544"/></svg>
